<?xml version="1.0" standalone="no"?>
<!DOCTYPE svg PUBLIC "-//W3C//DTD SVG 20010904//EN"
 "http://www.w3.org/TR/2001/REC-SVG-20010904/DTD/svg10.dtd">
<svg version="1.0" xmlns="http://www.w3.org/2000/svg"
 width="512.000000pt" height="512.000000pt" viewBox="0 0 512.000000 512.000000"
 preserveAspectRatio="xMidYMid meet">
<metadata>
Created by potrace 1.16, written by Peter Selinger 2001-2019
</metadata>
<g transform="translate(0.000000,512.000000) scale(0.100000,-0.100000)"
fill="#000000" stroke="none">
<path d="M1900 3096 c-360 -360 -655 -661 -654 -668 1 -9 532 -739 581 -797 1
-2 3 46 3 107 l0 110 -188 254 c-103 139 -198 268 -211 287 l-24 33 569 569
c313 313 576 569 584 569 20 0 1140 -1121 1140 -1141 0 -15 -36 -66 -271 -381
l-140 -186 3 -109 3 -108 125 169 c69 93 197 266 286 385 88 119 164 222 168
230 6 10 -174 196 -650 672 -362 363 -661 659 -664 659 -3 0 -300 -294 -660
-654z"/>
<path d="M2062 2807 c-221 -221 -402 -406 -402 -411 0 -4 17 -29 38 -55 21
-25 58 -75 83 -110 l44 -64 5 116 5 117 80 80 c44 44 85 80 91 80 9 0 12 -76
12 -307 0 -286 1 -313 21 -373 88 -275 366 -439 633 -376 156 36 316 155 369
273 56 125 58 140 60 468 1 168 5 308 10 311 5 3 48 -32 94 -78 l85 -84 0
-113 0 -113 53 68 c29 38 68 91 87 117 l34 48 -407 407 -407 407 0 -606 c0
-592 0 -607 -20 -632 -37 -47 -112 -44 -145 6 -14 22 -16 93 -15 626 0 330 -1
601 -2 601 -2 0 -184 -181 -406 -403z"/>
</g>
</svg>
